# xmcd
#
# Track frame offsets: 
#        150
#        12877
#        34965
#        51272
#        64892
#        94010
#        129040
#        146307
#        173085
#        196725
#
# Disc length: 2804 seconds
#
# Revision: 2
# Processed by: cddbd v1.4PL0 Copyright (c) Steve Scherf et al.
# Submitted via: ExactAudioCopy v0.90b4
#
DISCID=7c0af20a
DTITLE=Muddy Waters - I'm ready Live!
DYEAR=1996
DGENRE=Blues
TTITLE0=Baby Please Don't Go
TTITLE1=Soon Forgotten
TTITLE2=Corrina, Corrina
TTITLE3=Hoochie Coochie Man
TTITLE4=Howlin' Wolf
TTITLE5=Floyd's Guitar Blues
TTITLE6=Blow Wind Blow
TTITLE7=Caldonia
TTITLE8=Screamin' and Cryin'
TTITLE9=I Got My Mojo Working
EXTD=
EXTT0=
EXTT1=
EXTT2=
EXTT3=
EXTT4=
EXTT5=
EXTT6=
EXTT7=
EXTT8=
EXTT9=
PLAYORDER=
